<svg id="图层_1" data-name="图层 1" xmlns="http://www.w3.org/2000/svg" viewBox="0 0 64 64"><title>青学icon全改3</title><path class="cls-1" fill="#999"  d="M63.87,28.78a2.16,2.16,0,0,1,.1.61c0,2.61-5.29,6-11.41,9A20.06,20.06,0,0,0,53,35.56c5.43-2.82,8.34-5,8.65-6-.77-.51-3.84-.46-8.85.45a19.22,19.22,0,0,0-.5-2.25C58.15,26.68,63.07,26.52,63.87,28.78Z"/><path class="cls-1" fill="#999"  d="M53.1,33.59c0,.67,0,1.33-.1,2-.77.41-1.6.82-2.49,1.25a18,18,0,0,0,.28-3.22,18.86,18.86,0,0,0-.25-3.12c.79-.18,1.55-.33,2.26-.45A22,22,0,0,1,53.1,33.59Z"/><path class="cls-1" fill="#999"  d="M53,35.56a20.06,20.06,0,0,1-.44,2.81c-.89.44-1.82.87-2.74,1.3a17,17,0,0,0,.69-2.86C51.4,36.38,52.23,36,53,35.56Z"/><path class="cls-1" fill="#999"  d="M52.3,27.77A19.22,19.22,0,0,1,52.8,30c-.71.12-1.47.27-2.26.45A16.7,16.7,0,0,0,50,28.22C50.8,28.06,51.56,27.9,52.3,27.77Z"/><path class="cls-2" fill="#fff"  d="M50.54,30.47a18.86,18.86,0,0,1,.25,3.12,18,18,0,0,1-.28,3.22c-2,1-4.17,2-6.65,3,0-.38,0-.75,0-1.09a4,4,0,0,0-1.18-2.87l-2.51-2.51L40,33.19C44,32,47.56,31.09,50.54,30.47Z"/><path class="cls-1" fill="#999"  d="M49.82,39.67c.92-.43,1.85-.86,2.74-1.3A21.89,21.89,0,0,1,17.83,51l3-.77a19.24,19.24,0,0,0,10.4,3A19.63,19.63,0,0,0,49.82,39.67Z"/><path class="cls-1" fill="#999"  d="M52.3,27.77c-.74.13-1.5.29-2.27.45a19.58,19.58,0,0,0-35.85-4.33l-.36.12a2,2,0,0,0-1.36,1.46L10.57,33a2.16,2.16,0,0,0,0,1.1l2.12,7L11,42.05A21.91,21.91,0,1,1,52.3,27.77Z"/><path class="cls-2" fill="#fff"  d="M50,28.22a16.7,16.7,0,0,1,.51,2.25C47.56,31.09,44,32,40,33.19a4,4,0,0,0-2-1l-1.68-.29C40.13,30.74,45.24,29.24,50,28.22Z"/><path class="cls-1" fill="#999"  d="M50.51,36.81a17,17,0,0,1-.69,2.86c-2.55,1.17-5.12,2.27-7.41,3.2a4,4,0,0,0,1.45-3C46.34,38.77,48.55,37.77,50.51,36.81Z"/><path class="cls-2" fill="#fff"  d="M49.82,39.67A19.63,19.63,0,0,1,31.19,53.19a19.24,19.24,0,0,1-10.4-3C25,49,29.7,47.59,34.45,45.91c.33-.12,2.54-.9,5.62-2.11a4,4,0,0,0,2.34-.93C44.7,41.94,47.27,40.84,49.82,39.67Z"/><path class="cls-3" fill="#00c896" d="M43.87,38.73c0,.34,0,.71,0,1.09-2.12.89-4.43,1.81-6.93,2.74a4,4,0,0,1-1.11-2.66v-.58a4,4,0,0,0-.58-2.07,5,5,0,0,1-2.09-1.85h0c2.44-.83,4.73-1.57,6.88-2.2l.18.16,2.51,2.51A4,4,0,0,1,43.87,38.73Z"/><path class="cls-1" fill="#999"  d="M43.86,39.82a4,4,0,0,1-1.45,3l-2.34.93a4.45,4.45,0,0,1-1.34-.15,4,4,0,0,1-1.8-1.09C39.43,41.63,41.74,40.71,43.86,39.82Z"/><path class="cls-3" fill="#00c896" d="M42.41,42.87a4,4,0,0,1-2.34.93Z"/><path class="cls-1" fill="#999"  d="M38.73,43.65a4.45,4.45,0,0,0,1.34.15c-3.08,1.21-5.29,2-5.62,2.11C29.7,47.59,25,49,20.79,50.18a17.1,17.1,0,0,1-2.39-1.76c4.31-1.08,9.44-2.62,15.29-4.68,1.12-.39,2.19-.79,3.24-1.18A4,4,0,0,0,38.73,43.65Z"/><path class="cls-3" fill="#00c896" d="M38,32.23a4,4,0,0,1,2,1c-2.15.63-4.44,1.37-6.88,2.2a5.25,5.25,0,0,1-.75-2.17l3.94-1.28Z"/><path class="cls-3" fill="#00c896" d="M35.38,19.67a1.52,1.52,0,0,1,1.45,1.87l-1.5,6a1.5,1.5,0,0,1-2.74.44L30.15,24.1a1.6,1.6,0,0,0-.49-.48l-2-1.25a1.49,1.49,0,0,1-.63-.72,1.52,1.52,0,0,1,1.43-2.06Z"/><path class="cls-2" fill="#fff"  d="M35.82,39.9a4,4,0,0,0,1.11,2.66c-1,.39-2.12.79-3.24,1.18-5.85,2.06-11,3.6-15.29,4.68a18.65,18.65,0,0,1-3.46-3.9,2.1,2.1,0,0,0,1-.08,2.07,2.07,0,0,0,1.42-2v-.91C21.15,39.84,25.71,38,31,36.13l2.13-.74h0a5,5,0,0,0,2.09,1.85,4,4,0,0,1,.58,2.07Z"/><path class="cls-3" fill="#00c896" d="M33.76,31.52l2.55.42-3.94,1.28c0-.16,0-.33,0-.51a1.21,1.21,0,0,1,1.21-1.21A.68.68,0,0,1,33.76,31.52Z"/><path class="cls-2" fill="#fff"  d="M32.37,33.22a5.25,5.25,0,0,0,.75,2.17L31,36.13c-5.28,1.87-9.84,3.71-13.64,5.43V39c3.92-1.73,8.3-3.44,12.88-5.07Z"/><path class="cls-3" fill="#00c896" d="M24.91,25.39a2.06,2.06,0,0,1-.46,2.25L18,34.13a2.12,2.12,0,0,0-.61,1.48V39q-2.27,1-4.3,2a19.44,19.44,0,0,1,1.13-17.13l7.08-2.36a2.07,2.07,0,0,1,2.44.91,2.59,2.59,0,0,1,.14.29Z"/><path class="cls-1" fill="#999"  d="M18.4,48.42a17.1,17.1,0,0,0,2.39,1.76l-3,.77a22.66,22.66,0,0,1-2.14-1.88Z"/><path class="cls-1" fill="#999"  d="M14.94,44.52a18.65,18.65,0,0,0,3.46,3.9l-2.71.65A22.33,22.33,0,0,1,12,44.14c.46-.24.93-.48,1.43-.72a2,2,0,0,0,1.51,1.1Z"/><path class="cls-3" fill="#00c896" d="M17.35,41.56v.91a2.07,2.07,0,0,1-1.42,2,2.1,2.1,0,0,1-1,.08h0c-.31-.46-.6-.93-.87-1.42C15.09,42.6,16.18,42.09,17.35,41.56Z"/><path class="cls-3" fill="#00c896" d="M17.35,39v2.53c-1.17.53-2.26,1-3.29,1.54a19,19,0,0,1-1-2.08Q15.09,40,17.35,39Z"/><path class="cls-1" fill="#999"  d="M15.69,49.07A22.66,22.66,0,0,0,17.83,51c-2,.47-3.85.87-5.58,1.19a39.63,39.63,0,0,1-6.92.78C2,52.92,1.14,52,.81,51.08c-.48-1.37,0-3.52,8.23-8,.62-.33,1.26-.68,1.93-1,.31.72.65,1.42,1,2.09-5.63,2.91-8.64,5.18-9,6.16C4,50.92,8.4,50.71,15.69,49.07Z"/><path class="cls-1" fill="#999"  d="M14.06,43.1c.27.49.56,1,.87,1.42a2,2,0,0,1-1.51-1.1Z"/><path class="cls-1" fill="#999"  d="M13.82,24l.36-.12A19.44,19.44,0,0,0,13.05,41l-.34.17-2.12-7a2.16,2.16,0,0,1,0-1.1l1.89-7.57A2,2,0,0,1,13.82,24Z"/><path class="cls-1" fill="#999"  d="M14.06,43.1l-.64.32a1.35,1.35,0,0,1-.14-.35l-.57-1.88.34-.17A19,19,0,0,0,14.06,43.1Z"/><path class="cls-1" fill="#999"  d="M13.28,43.07a1.35,1.35,0,0,0,.14.35c-.5.24-1,.48-1.43.72-.37-.67-.71-1.37-1-2.09l1.74-.86Z"/></svg>
