<?xml version="1.0" standalone="no"?><!DOCTYPE svg PUBLIC "-//W3C//DTD SVG 1.1//EN" "http://www.w3.org/Graphics/SVG/1.1/DTD/svg11.dtd"><svg t="1523284156989" class="icon" style="" viewBox="0 0 1024 1024" version="1.1" xmlns="http://www.w3.org/2000/svg" p-id="12547" xmlns:xlink="http://www.w3.org/1999/xlink" width="200" height="200"><defs><style type="text/css"></style></defs><path d="M228.445091 690.827636C194.839273 637.765818 176.872727 576.232727 176.872727 512c0-89.553455 34.816-173.707636 98.117818-237.009455S422.446545 176.872727 512 176.872727s173.707636 34.816 237.009455 98.117818S847.127273 422.446545 847.127273 512c0 23.086545-2.327273 45.707636-6.888728 67.863273 15.173818-7.912727 29.044364-16.011636 41.518546-24.017455 1.675636-14.429091 2.513455-29.044364 2.513454-43.752727 0-50.269091-9.867636-99.048727-29.230545-144.942546-18.711273-44.311273-45.614545-84.154182-79.778909-118.318545s-74.007273-61.067636-118.318546-79.778909C611.048727 149.504 562.269091 139.636364 512 139.636364s-99.048727 9.867636-144.942545 29.230545c-44.311273 18.711273-84.154182 45.614545-118.318546 79.778909s-61.067636 74.007273-79.778909 118.318546C149.504 412.951273 139.636364 461.730909 139.636364 512s9.867636 99.048727 29.230545 144.942545c3.816727 9.029818 8.005818 17.780364 12.474182 26.437819 7.819636 1.582545 16.011636 3.072 24.482909 4.375272 7.354182 1.117091 14.894545 2.141091 22.621091 3.072zM826.554182 628.084364c-16.570182 44.869818-42.728727 86.016-77.544727 120.925091-63.301818 63.301818-147.456 98.117818-237.009455 98.117818s-173.707636-34.816-237.009455-98.117818c-5.864727-5.864727-11.450182-11.822545-16.756363-18.059637-17.780364-1.210182-35.002182-3.072-51.386182-5.399273 12.381091 17.687273 26.344727 34.257455 41.797818 49.710546 34.164364 34.164364 74.007273 61.067636 118.318546 79.778909C412.951273 874.496 461.730909 884.363636 512 884.363636s99.048727-9.867636 144.942545-29.230545c44.311273-18.711273 84.154182-45.614545 118.318546-79.778909s61.067636-74.007273 79.778909-118.318546c7.168-17.035636 13.125818-34.536727 17.687273-52.317091-1.117091 0.651636-2.327273 1.303273-3.444364 1.95491-13.405091 7.261091-27.741091 14.429091-42.728727 21.410909z" fill="#353535" p-id="12548"></path><path d="M995.141818 451.397818c-4.468364-25.506909-21.597091-47.290182-50.920727-64.791273-8.843636-5.306182-20.293818-2.420364-25.506909 6.423273-5.306182 8.843636-2.420364 20.293818 6.423273 25.506909 19.642182 11.729455 30.813091 24.948364 33.419636 39.284364 4.933818 28.020364-22.900364 63.115636-76.613818 97.931636-12.474182 8.098909-26.344727 16.104727-41.518546 24.017455-73.634909 38.446545-178.082909 74.100364-303.662545 96.256-112.360727 19.828364-220.625455 24.855273-308.224 14.708363-7.633455-0.930909-15.173818-1.861818-22.528-3.072-8.471273-1.303273-16.663273-2.792727-24.482909-4.375272-67.956364-13.963636-110.592-38.725818-115.805091-68.049455-4.282182-24.296727 16.849455-49.617455 35.281454-66.56 7.540364-6.981818 8.098909-18.711273 1.117091-26.344727-6.981818-7.540364-18.711273-8.098909-26.344727-1.117091-17.128727 15.732364-29.882182 31.837091-37.794909 47.662545-8.936727 17.873455-12.008727 35.653818-8.936727 52.782546 4.747636 27.182545 23.831273 50.082909 56.692363 68.049454 28.672 15.732364 67.211636 27.368727 114.594909 34.72291 2.234182 0.372364 4.468364 0.651636 6.702546 1.024 16.384 2.327273 33.512727 4.096 51.386182 5.399272 20.759273 1.489455 42.356364 2.234182 64.605091 2.234182 68.421818 0 143.546182-6.888727 220.16-20.386909 105.937455-18.711273 204.613818-48.314182 283.461818-84.712727 14.987636-6.888727 29.323636-14.056727 42.728727-21.504 1.117091-0.651636 2.327273-1.303273 3.444364-1.954909 40.308364-22.528 71.400727-45.986909 92.346181-69.911273 24.669091-28.020364 34.722909-56.040727 29.975273-83.223273z" fill="#353535" p-id="12549"></path><path d="M354.304 426.635636c-51.293091 0-93.090909 41.797818-93.090909 93.090909s41.797818 93.090909 93.090909 93.09091 93.090909-41.797818 93.090909-93.09091-41.704727-93.090909-93.090909-93.090909z m0 148.945455c-30.813091 0-55.854545-25.041455-55.854545-55.854546s25.041455-55.854545 55.854545-55.854545 55.854545 25.041455 55.854545 55.854545-25.041455 55.854545-55.854545 55.854546zM551.098182 247.156364c-33.326545 0-60.509091 27.182545-60.509091 60.509091s27.182545 60.509091 60.509091 60.50909 60.509091-27.182545 60.509091-60.50909-27.089455-60.509091-60.509091-60.509091z m0 83.781818c-12.846545 0-23.272727-10.426182-23.272727-23.272727s10.426182-23.272727 23.272727-23.272728 23.272727 10.426182 23.272727 23.272728-10.426182 23.272727-23.272727 23.272727z" fill="#67E6D1" p-id="12550" class="selected"></path><path d="M714.938182 512.093091m-4.654546 0a4.654545 4.654545 0 1 0 9.309091 0 4.654545 4.654545 0 1 0-9.309091 0Z" fill="#EFEFEF" p-id="12551"></path><path d="M714.938182 470.202182c-23.086545 0-41.890909 18.804364-41.890909 41.890909s18.804364 41.890909 41.890909 41.890909 41.890909-18.804364 41.890909-41.890909-18.711273-41.890909-41.890909-41.890909z m0 46.545454c-2.606545 0-4.654545-2.048-4.654546-4.654545s2.048-4.654545 4.654546-4.654546 4.654545 2.048 4.654545 4.654546-2.048 4.654545-4.654545 4.654545z" fill="#67E6D1" p-id="12552" class="selected"></path></svg>