<svg id="图层_1" data-name="图层 1" xmlns="http://www.w3.org/2000/svg" viewBox="0 0 64 64"><title>青学icon全改3</title><path class="cls-1" fill="#00c896" d="M59.15,45.38a36,36,0,0,0-9.62-17.11h0a9.74,9.74,0,1,0-12.86,0h0a36.09,36.09,0,0,0-9.62,17.11,4.87,4.87,0,0,0,4.75,6H54.41A4.86,4.86,0,0,0,59.15,45.38Z"/><path class="cls-1" fill="#00c896" d="M54.41,52.63H31.8A6.09,6.09,0,0,1,27,50.27a6,6,0,0,1-1.1-5.18A37.65,37.65,0,0,1,35,28.27a11,11,0,1,1,16.31,0,37.71,37.71,0,0,1,9.07,16.82h0a6,6,0,0,1-1.09,5.18A6.09,6.09,0,0,1,54.41,52.63ZM43.1,12.44a8.52,8.52,0,0,0-5.62,14.92l1,.87-.95.92a34.94,34.94,0,0,0-9.29,16.53,3.58,3.58,0,0,0,.66,3.09,3.66,3.66,0,0,0,2.91,1.42H54.41a3.69,3.69,0,0,0,2.91-1.42A3.61,3.61,0,0,0,58,45.68h0a34.82,34.82,0,0,0-9.28-16.53l-.95-.92,1-.87A8.52,8.52,0,0,0,43.1,12.44Z"/><path class="cls-2" fill="#999" d="M33.7,52.63H11.09a6.09,6.09,0,0,1-4.83-2.36,6,6,0,0,1-1.09-5.18,37.71,37.71,0,0,1,9.07-16.82,11,11,0,1,1,16.31,0,37.65,37.65,0,0,1,9.08,16.82h0a6,6,0,0,1-1.1,5.18A6.09,6.09,0,0,1,33.7,52.63ZM22.4,12.44a8.52,8.52,0,0,0-5.63,14.92l1,.87-1,.92A34.82,34.82,0,0,0,7.53,45.68a3.61,3.61,0,0,0,.65,3.09,3.69,3.69,0,0,0,2.91,1.42H33.7a3.66,3.66,0,0,0,2.91-1.42,3.58,3.58,0,0,0,.66-3.09h0A34.94,34.94,0,0,0,28,29.15L27,28.23l1-.87A8.52,8.52,0,0,0,22.4,12.44Z"/><path class="cls-3" fill="#fff" d="M39.79,33.14l-6.43-4.87-6.43,4.87a36.07,36.07,0,0,0-9.62,17.12,4.86,4.86,0,0,0,4.74,6H44.66a4.87,4.87,0,0,0,4.75-6A36.07,36.07,0,0,0,39.79,33.14Z"/><path class="cls-2" fill="#999" d="M44.66,57.5H22.05a6.09,6.09,0,0,1-4.83-2.36A6,6,0,0,1,16.13,50a37.3,37.3,0,0,1,10-17.69l.11-.1,7.17-5.43,7.28,5.53A37.3,37.3,0,0,1,50.59,50a6,6,0,0,1-1.1,5.18A6.07,6.07,0,0,1,44.66,57.5ZM27.72,34.07a34.92,34.92,0,0,0-9.23,16.49,3.56,3.56,0,0,0,.66,3.08,3.63,3.63,0,0,0,2.9,1.42H44.66a3.63,3.63,0,0,0,2.91-1.42,3.56,3.56,0,0,0,.66-3.08A34.86,34.86,0,0,0,39,34.07L33.36,29.8Z"/><circle class="cls-3" fill="#fff" cx="33.36" cy="25.83" r="9.74"/><path class="cls-2" fill="#999" d="M33.36,36.79a11,11,0,1,1,11-11A11,11,0,0,1,33.36,36.79Zm0-19.48a8.53,8.53,0,1,0,8.52,8.52A8.54,8.54,0,0,0,33.36,17.31Z"/></svg>
