<svg id="图层_1" data-name="图层 1" xmlns="http://www.w3.org/2000/svg" viewBox="0 0 64 64"><title>青学icon全改3</title><path class="cls-1" fill="#999" d="M43,54.6c-5.36,0-9.72-3.81-9.72-8.51S37.6,37.58,43,37.58s9.73,3.82,9.73,8.51S48.33,54.6,43,54.6ZM43,40c-4,0-7.29,2.73-7.29,6.08s3.27,6.08,7.29,6.08,7.3-2.73,7.3-6.08S47,40,43,40Z"/><path class="cls-1" fill="#999" d="M21.06,49.93l-2.4-.38L24.2,15.3a6.13,6.13,0,0,1,5-5.08l20.22-3a6.13,6.13,0,0,1,7.13,7l-4.18,30-2.41-.34,4.18-30a3.7,3.7,0,0,0-4.32-4.21l-20.22,3a3.69,3.69,0,0,0-3,3.07Z"/><path class="cls-1" fill="#999" d="M25.38,24.2,23,23.82a6.14,6.14,0,0,1,5-5.09l20.22-3a6.13,6.13,0,0,1,7.12,7l-2.4-.36a3.71,3.71,0,0,0-4.33-4.2l-20.22,3A3.71,3.71,0,0,0,25.38,24.2Z"/><ellipse class="cls-2" fill="#00c896" cx="12.56" cy="49.74" rx="8.51" ry="7.3"/></svg>
