<?xml version="1.0" standalone="no"?><!DOCTYPE svg PUBLIC "-//W3C//DTD SVG 1.1//EN" "http://www.w3.org/Graphics/SVG/1.1/DTD/svg11.dtd"><svg t="1523290149200" class="icon" style="" viewBox="0 0 1026 1024" version="1.1" xmlns="http://www.w3.org/2000/svg" p-id="1584" xmlns:xlink="http://www.w3.org/1999/xlink" width="200.390625" height="200"><defs><style type="text/css"></style></defs><path d="M513.828571 220.342857l-62.714514 282.2144c-20.143543-15.928686-49.857829-26.2144-83.5712-26.2144-60.642743 0-109.714286 32.714971-109.714286 73.142857 0 40.356571 49.071543 73.142857 109.714286 73.142857s109.714286-32.786286 109.714286-73.142857l56.892343-256L660.114286 293.485714l73.142857-73.142857-182.857143 0L513.828571 220.342857z" p-id="1585" class="selected" fill="#67E6D1"></path><path d="M989.257143 915.2c-20.178286 0-36.571429-16.427886-36.571429-36.571429 0-20.214857 16.393143-36.571429 36.571429-36.571429 20.214857 0 36.571429-16.356571 36.571429-36.571429L892.042971 69.699657c-6.070857-38.928457-39.572114-68.714057-80.213943-68.714057-0.142629 0-0.142629-0.071314-0.250514-0.071314L211.399314 0.914286C174.292114 3.342629 144.221257 30.485943 137.221486 66.199771L7.186286 846.485943C4.042971 856.700343 1.828571 867.342629 1.828571 878.628571c0 60.500114 49.214171 109.714286 109.714286 109.714286l877.714286 0c20.214857 0 36.571429-16.356571 36.571429-36.571429S1009.472 915.2 989.257143 915.2zM885.792914 915.2 111.542857 915.2c-20.178286 0-36.571429-16.427886-36.571429-36.571429 0-20.214857 16.393143-36.571429 36.571429-36.571429l774.250057 0c-4.035657 11.428571-6.250057 23.714743-6.250057 36.571429C879.542857 891.413943 881.757257 903.771429 885.792914 915.2zM111.542857 768.914286c-6.178743 0-12.178286 0.8576-18.071771 1.786514l2.071771-9.428114L210.079086 74.057143l607.5008 0 127.392914 694.857143L111.542857 768.914286z" p-id="1586"></path></svg>