<?xml version="1.0" standalone="no"?><!DOCTYPE svg PUBLIC "-//W3C//DTD SVG 1.1//EN" "http://www.w3.org/Graphics/SVG/1.1/DTD/svg11.dtd"><svg t="1523283237481" class="icon" style="" viewBox="0 0 1024 1024" version="1.1" xmlns="http://www.w3.org/2000/svg" p-id="1523" xmlns:xlink="http://www.w3.org/1999/xlink" width="200" height="200"><defs><style type="text/css"></style></defs><path d="M995.2938666666666 631.9776c0-43.580799999999996-20.862933333333334-83.51466666666667-54.8-108.64106666666666-4.146133333333333-82.28373333333334-31.722666666666665-160.35946666666666-79.46773333333334-226.00639999999999-9.575466666666667-13.182933333333333-28.023466666666664-16.100266666666666-41.211733333333335-6.517333333333333-13.169066666666666 9.590399999999999-16.077866666666665 28.027733333333334-6.504533333333333 41.196799999999996 43.731199999999994 60.126933333333334 68.0672 132.24533333333335 69.02293333333334 208.12693333333334l0.20693333333333333 17.008 14.824533333333333 8.341333333333333c23.8688 13.416533333333332 38.93653333333333 38.62506666666666 38.93653333333333 66.49173333333333 0 41.812266666666666-33.644800000000004 75.8016-75.42293333333333 76.2624l-16.970666666666666 0.2122666666666667-8.3712 14.762666666666666c-63.919999999999995 112.88746666666665-183.53493333333333 184.15253333333334-315.648 184.15253333333334-133.79306666666668 0-254.71146666666667-73.0976-317.9712-188.29973333333334l-9.194666666666667-16.762666666666668-19.053866666666664 1.5712000000000002c-2.0896 0.16-4.206933333333334 0.24-6.366933333333334 0.24-42.123733333333334 0-76.26559999999999-34.15253333333333-76.26559999999999-76.2624 0-31.518933333333333 19.2864-59.45386666666666 48.064-70.91413333333333l17.8272-7.0976 0.7434666666666666-19.166933333333333c7.496533333333333-194.13119999999998 167.32906666666668-348.2581333333334 362.21119999999996-348.2581333333334 13.6608 0 27.095466666666667 0.7434666666666666 40.310399999999994 2.1952 16.189866666666667 1.8144 30.771199999999997-9.8432 32.5728-26.0384 1.8005333333333333-16.187733333333334-9.851733333333334-30.779733333333336-26.041600000000003-32.5856-15.392-1.7088-31.02293333333333-2.5632-46.8416-2.5632-220.61866666666668 0-402.51626666666664 169.8592-420.0362666666667 387.1818666666667-41.2288 23.7408-67.8016 68.016-67.8016 117.24693333333333 0 71.9776 56.276266666666665 130.6688 127.22346666666667 134.8544 75.59146666666668 124.98346666666666 211.12106666666665 203.65226666666666 360.61333333333334 203.65226666666666 148.1664 0 282.6816-77.28106666666666 358.70506666666665-200.51093333333336 65.952-9.072000000000001 116.70826666666666-65.51039999999999 116.70826666666666-133.87199999999999z m0 0" p-id="1524"></path><path d="M595.9914666666666 253.66506666666663c-11.591466666666667-11.450666666666667-30.2624-11.332266666666667-41.70773333333333 0.24426666666666666-11.450666666666667 11.575466666666667-11.3504 30.269866666666665 0.2368 41.70773333333333 54.76586666666667 54.126933333333334 143.05706666666669 53.608533333333334 197.15200000000002-1.1669333333333334 54.1536-54.75306666666667 53.64586666666666-143.02933333333334-1.1338666666666666-197.13920000000002-25.855999999999998-25.529600000000002-59.980799999999995-39.6256-95.5456-40.2496-16.289066666666667-0.27626666666666666-29.72693333333333 12.695466666666666-30.005333333333333 28.973866666666666-0.27626666666666666 16.292266666666666 12.7008 29.728 28.977066666666666 30.01813333333333 20.5408 0.3488 40.15253333333333 8.455466666666666 55.12426666666667 23.223466666666663 31.589333333333332 31.2064 31.8752 82.12266666666666 0.6335999999999999 113.71093333333333-31.217066666666664 31.6096-82.14506666666666 31.9072-113.7312 0.6773333333333333z m0 0M750.9045333333333 540.7317333333334c0-16.493866666666666-6.786133333333333-31.3984-17.688533333333332-42.10666666666667-10.653866666666666-10.436266666666667-25.2256-16.88-41.309866666666665-16.88-32.56426666666667 0-58.98133333333333 26.421333333333333-58.98133333333333 58.986666666666665 0 32.5856 26.417066666666663 58.99626666666666 58.98133333333333 58.99626666666666 32.57066666666667-0.0010666666666666667 58.9984-26.41173333333333 58.9984-58.99626666666666z m0 0M381.7184 498.62506666666667c-10.6432-10.436266666666667-25.221333333333334-16.88-41.3024-16.88-32.57066666666667 0-58.99626666666666 26.421333333333333-58.99626666666666 58.986666666666665 0 32.5856 26.4256 58.99626666666666 58.99626666666666 58.99626666666666 32.58026666666667 0 58.992-26.410666666666668 58.992-58.99626666666666-0.0010666666666666667-16.493866666666666-6.772266666666667-31.3984-17.6896-42.10666666666667z m0 0" p-id="1525" class="selected" fill="#67E6D1"></path></svg>