<svg id="图层_1" data-name="图层 1" xmlns="http://www.w3.org/2000/svg" viewBox="0 0 64 64"><title>青学icon全改3</title><path class="cls-1" fill="#999" d="M42.2,62.91H22.75a6.09,6.09,0,0,1-6.09-6.08V27.65a6.09,6.09,0,0,1,6.09-6.08H42.2a6.08,6.08,0,0,1,6.08,6.08V56.83A6.09,6.09,0,0,1,42.2,62.91ZM22.75,24a3.64,3.64,0,0,0-3.65,3.65V56.83a3.65,3.65,0,0,0,3.65,3.65H42.2a3.66,3.66,0,0,0,3.65-3.65V27.65A3.65,3.65,0,0,0,42.2,24Z"/><path class="cls-1" fill="#999" d="M36.73,17.92H28.22A4.26,4.26,0,0,1,24,13.23a4.36,4.36,0,0,1,3.89-3.79,4.21,4.21,0,0,0,.35-1.09V5.76a4.26,4.26,0,0,1,4.69-4.24,4.4,4.4,0,0,1,3.82,4.41V8.36A3.59,3.59,0,0,0,37,9.43,4.36,4.36,0,0,1,41,13.23a4.24,4.24,0,0,1-4.23,4.69Zm-4.26-14a1.84,1.84,0,0,0-1.22.47,1.8,1.8,0,0,0-.6,1.36v2.6c0,.34-.52,3.48-2.26,3.48a1.94,1.94,0,0,0-2,1.63,1.84,1.84,0,0,0,1.82,2h8.51a1.8,1.8,0,0,0,1.35-.61,1.77,1.77,0,0,0,.46-1.41,1.93,1.93,0,0,0-2-1.63c-1.84,0-2.26-3-2.26-3.48V5.93a2,2,0,0,0-1.63-2Z"/><rect class="cls-1" fill="#999" x="17.88" y="37.37" width="12.16" height="2.43" rx="1.22" ry="1.22"/><rect class="cls-1" fill="#999" x="17.88" y="30.08" width="12.16" height="2.43" rx="1.22" ry="1.22"/><rect class="cls-1" fill="#999" x="17.88" y="44.67" width="12.16" height="2.43" rx="1.22" ry="1.22"/><rect class="cls-2" fill="#00c896" x="21.53" y="16.7" width="21.89" height="6.08" rx="2.5" ry="2.5"/><path class="cls-2" fill="#00c896" d="M40.38,24H24.57a4.26,4.26,0,1,1,0-8.51H40.38a4.26,4.26,0,0,1,0,8.51ZM24.57,17.92a1.83,1.83,0,0,0,0,3.65H40.38a1.83,1.83,0,0,0,0-3.65Z"/></svg>
