<svg id="图层_1" data-name="图层 1" xmlns="http://www.w3.org/2000/svg" viewBox="0 0 64 64"><defs><style>.cls-1{fill:#999;}.cls-2{fill:#00c896;}</style></defs><title>青学icon全改3</title><rect class="cls-1" fill="#999" x="59.18" y="27.08" width="2.43" height="14.59" rx="1.22" ry="1.22"/><path class="cls-2" fill="#00c896" d="M37.11,37.84a11.89,11.89,0,0,1-9.36,0l-9.91-4.25V50.18a4.86,4.86,0,0,0,4.86,4.87H42.16A4.87,4.87,0,0,0,47,50.18V33.59Z"/><path class="cls-2" fill="#00c896" d="M42.16,56.26H22.7a6.08,6.08,0,0,1-6.08-6.08V31.75l11.61,5a10.66,10.66,0,0,0,8.4,0h0l11.61-5V50.18A6.08,6.08,0,0,1,42.16,56.26ZM19.05,35.44V50.18a3.65,3.65,0,0,0,3.65,3.65H42.16a3.65,3.65,0,0,0,3.65-3.65V35.44L37.58,39a13.09,13.09,0,0,1-10.31,0Z"/><path class="cls-1" fill="#999" d="M32.43,40a13.15,13.15,0,0,1-5.16-1h0L3.68,28.85a3.91,3.91,0,0,1,0-7.19L27.27,11.55a13.12,13.12,0,0,1,10.32,0L61.18,21.66a3.91,3.91,0,0,1,0,7.19L37.58,39A13.07,13.07,0,0,1,32.43,40Zm0-27.08a10.69,10.69,0,0,0-4.2.85L4.64,23.89a1.47,1.47,0,0,0-.9,1.36,1.46,1.46,0,0,0,.9,1.36L28.23,36.72a10.66,10.66,0,0,0,8.4,0L60.22,26.61a1.46,1.46,0,0,0,.9-1.36,1.47,1.47,0,0,0-.9-1.36L36.63,13.78A10.72,10.72,0,0,0,32.43,12.93Z"/></svg>
