<?xml version="1.0" standalone="no"?><!DOCTYPE svg PUBLIC "-//W3C//DTD SVG 1.1//EN" "http://www.w3.org/Graphics/SVG/1.1/DTD/svg11.dtd"><svg t="1523281856101" class="icon" style="" viewBox="0 0 1024 1024" version="1.1" xmlns="http://www.w3.org/2000/svg" p-id="6705" xmlns:xlink="http://www.w3.org/1999/xlink" width="200" height="200"><defs><style type="text/css"></style></defs><path d="M682.666667 960h-277.333334c-12.8 0-21.333333-8.533333-21.333333-21.333333v-149.333334h-106.666667c-12.8 0-21.333333-8.533333-21.333333-21.333333v-151.466667l-85.333333-40.533333c-4.266667-2.133333-8.533333-6.4-10.666667-12.8-2.133333-4.266667-2.133333-10.666667 0-17.066667l53.333333-115.2v-6.4c0-200.533333 149.333333-362.666667 330.666667-362.666666s330.666667 162.133333 330.666667 362.666666c0 132.266667-66.133333 253.866667-170.666667 317.866667v194.133333c0 14.933333-8.533333 23.466667-21.333333 23.466667z m-256-42.666667h234.666666v-185.6c0-6.4 4.266667-14.933333 10.666667-19.2l10.666667-6.4c91.733333-55.466667 149.333333-164.266667 149.333333-281.6 0-177.066667-130.133333-320-288-320s-288 142.933333-288 320v10.666667c0 4.266667 0 6.4-2.133333 8.533333l-46.933334 100.266667 78.933334 36.266667c8.533333 4.266667 12.8 10.666667 12.8 19.2v142.933333h106.666666c12.8 0 21.333333 8.533333 21.333334 21.333333v153.6z" fill="#3A3E46" p-id="6706" class=""></path><path d="M710.4 398.933333c-19.2-21.333333-44.8-42.666667-72.533333-61.866666-6.4-85.333333-34.133333-164.266667-83.2-164.266667-34.133333 0-57.6 38.4-70.4 89.6-51.2-14.933333-96-12.8-113.066667 17.066667-25.6 42.666667 29.866667 104.533333 102.4 155.733333 6.4 85.333333 34.133333 164.266667 83.2 164.266667 34.133333 0 57.6-38.4 70.4-89.6 6.4 2.133333 12.8 4.266667 19.2 4.266666 14.933333 2.133333 27.733333 4.266667 38.4 4.266667 34.133333 0 49.066667-12.8 57.6-25.6 6.4-19.2 8.533333-49.066667-32-93.866667z m-113.066667-14.933333c0 25.6-2.133333 46.933333-4.266666 66.133333-19.2-8.533333-40.533333-17.066667-59.733334-29.866666-6.4-4.266667-14.933333-8.533333-21.333333-12.8v-23.466667c0-25.6 2.133333-46.933333 4.266667-66.133333 19.2 8.533333 38.4 17.066667 59.733333 29.866666 6.4 4.266667 14.933333 8.533333 21.333333 12.8v23.466667z m-42.666666-170.666667c8.533333 0 27.733333 32 36.266666 93.866667-21.333333-12.8-44.8-23.466667-68.266666-32 10.666667-40.533333 25.6-61.866667 32-61.866667z m-147.2 85.333334c2.133333-2.133333 8.533333-4.266667 17.066666-4.266667 10.666667 0 29.866667 2.133333 51.2 8.533333-4.266667 23.466667-6.4 49.066667-6.4 74.666667-49.066667-38.4-66.133333-72.533333-61.866666-78.933333z m147.2 256c-8.533333 0-27.733333-32-36.266667-93.866667 23.466667 12.8 44.8 23.466667 68.266667 32-10.666667 40.533333-25.6 61.866667-32 61.866667z m147.2-85.333334c0 2.133333-12.8 8.533333-49.066667 0-6.4-2.133333-12.8-4.266667-19.2-4.266666 4.266667-23.466667 6.4-49.066667 6.4-74.666667 14.933333 12.8 27.733333 23.466667 38.4 36.266667 25.6 27.733333 25.6 40.533333 23.466667 42.666666z" fill="#67E6D1" p-id="6707" class=""></path><path d="M375.466667 428.8c4.266667-8.533333 12.8-19.2 21.333333-29.866667 27.733333-29.866667 66.133333-61.866667 113.066667-87.466666 89.6-51.2 198.4-83.2 228.266666-32 29.866667 51.2-53.333333 130.133333-142.933333 181.333333-46.933333 27.733333-93.866667 46.933333-134.4 53.333333-59.733333 12.8-85.333333-4.266667-93.866667-21.333333-4.266667-14.933333-8.533333-34.133333 8.533334-64z m322.133333-113.066667c4.266667-8.533333 6.4-14.933333 4.266667-17.066666-6.4-8.533333-72.533333-8.533333-168.533334 49.066666-42.666667 23.466667-78.933333 53.333333-102.4 78.933334-23.466667 27.733333-23.466667 40.533333-23.466666 42.666666 0 2.133333 12.8 8.533333 49.066666 0 36.266667-6.4 78.933333-25.6 121.6-49.066666 68.266667-40.533333 106.666667-81.066667 119.466667-104.533334z" fill="#67E6D1" p-id="6708" class=""></path><path d="M725.333333 469.333333m-21.333333 0a21.333333 21.333333 0 1 0 42.666667 0 21.333333 21.333333 0 1 0-42.666667 0Z" fill="#2c2c2c" p-id="6709" class="selected"></path><path d="M554.666667 192m-21.333334 0a21.333333 21.333333 0 1 0 42.666667 0 21.333333 21.333333 0 1 0-42.666667 0Z" fill="#2c2c2c" p-id="6710" class="selected"></path><path d="M384 469.333333m-21.333333 0a21.333333 21.333333 0 1 0 42.666666 0 21.333333 21.333333 0 1 0-42.666666 0Z" fill="#2c2c2c" p-id="6711" class="selected"></path></svg>