<?xml version="1.0" standalone="no"?><!DOCTYPE svg PUBLIC "-//W3C//DTD SVG 1.1//EN" "http://www.w3.org/Graphics/SVG/1.1/DTD/svg11.dtd"><svg t="1523277566243" class="icon" style="" viewBox="0 0 1024 1024" version="1.1" xmlns="http://www.w3.org/2000/svg" p-id="1869" xmlns:xlink="http://www.w3.org/1999/xlink" width="200" height="200"><defs><style type="text/css"></style></defs><path d="M384 928h-64a32 32 0 0 1-32-32v-96H128a96.109 96.109 0 0 1-96-96V192a96.109 96.109 0 0 1 96-96h768a96.109 96.109 0 0 1 96 96v512a96.109 96.109 0 0 1-96 96H525.255L406.627 918.627A32.002 32.002 0 0 1 384 928z m-32-64h18.745l118.628-118.627A32.002 32.002 0 0 1 512 736h384a32.036 32.036 0 0 0 32-32V192a32.036 32.036 0 0 0-32-32H128a32.036 32.036 0 0 0-32 32v512a32.036 32.036 0 0 0 32 32h192a32 32 0 0 1 32 32z" p-id="1870" fill="#67E6D1"></path><path d="M512 544a96 96 0 1 1 96-96 96.109 96.109 0 0 1-96 96z m0-128a32 32 0 1 0 32 32 32.036 32.036 0 0 0-32-32zM768 544a96 96 0 1 1 96-96 96.109 96.109 0 0 1-96 96z m0-128a32 32 0 1 0 32 32 32.036 32.036 0 0 0-32-32zM256 544a96 96 0 1 1 96-96 96.109 96.109 0 0 1-96 96z m0-128a32 32 0 1 0 32 32 32.036 32.036 0 0 0-32-32z" p-id="1871" fill="#67E6D1"></path></svg>