<?xml version="1.0" standalone="no"?><svg t="1523277832798" class="icon" style="" viewBox="0 0 1024 1024" version="1.1" xmlns="http://www.w3.org/2000/svg" p-id="2055" xmlns:xlink="http://www.w3.org/1999/xlink" width="200" height="200"><defs><style type="text/css"></style></defs><path d="M511.837 940.182a95.69 95.69 0 0 1-67.882-28.069L118.238 586.396A294.451 294.451 0 0 1 512 149.564a294.501 294.501 0 0 1 393.762 20.443 294.43 294.43 0 0 1 0 416.39l-326.077 325.75a95.707 95.707 0 0 1-67.848 28.035zM326.433 147.77a230.432 230.432 0 0 0-162.94 393.372l325.716 325.716a32.039 32.039 0 0 0 45.243 0.012L860.52 541.13a230.431 230.431 0 0 0-0.011-325.868l-0.001-0.001a230.432 230.432 0 0 0-325.88 0 32 32 0 0 1-45.254 0 228.923 228.923 0 0 0-162.94-67.491z" p-id="2056" fill=""></path></svg>
