<?xml version="1.0" standalone="no"?><!DOCTYPE svg PUBLIC "-//W3C//DTD SVG 1.1//EN" "http://www.w3.org/Graphics/SVG/1.1/DTD/svg11.dtd"><svg t="1523277995614" class="icon" style="" viewBox="0 0 1024 1024" version="1.1" xmlns="http://www.w3.org/2000/svg" p-id="2240" xmlns:xlink="http://www.w3.org/1999/xlink" width="200" height="200"><defs><style type="text/css"></style></defs><path d="M861.57 991.98a98.522 98.522 0 0 1-41.334-9.124q-0.301-0.139-0.6-0.284L526.2 839.678a34.443 34.443 0 0 0-28.398 0L204.363 982.572q-0.297 0.146-0.6 0.284A98.49 98.49 0 0 1 64 893.432V128a96.109 96.109 0 0 1 96-96h704a96.109 96.109 0 0 1 96 96v765.432a98.618 98.618 0 0 1-98.43 98.548z m-14.253-67.113A34.49 34.49 0 0 0 896 893.432V128a32.036 32.036 0 0 0-32-32H160a32.036 32.036 0 0 0-32 32v765.432a34.49 34.49 0 0 0 48.683 31.435L470.127 781.97q0.297-0.146 0.6-0.285a98.347 98.347 0 0 1 82.546 0q0.302 0.14 0.6 0.285z" p-id="2241" fill="#67E6D1"></path><path d="M657.562 704a31.963 31.963 0 0 1-14.888-3.676L512 631.625l-130.674 68.7a32 32 0 0 1-46.43-33.735l24.957-145.506-105.716-103.049a32 32 0 0 1 17.734-54.582l146.097-21.228 65.337-132.387a32 32 0 0 1 57.39 0l65.337 132.387 146.097 21.228a32 32 0 0 1 17.734 54.582L664.147 521.084l24.957 145.506A31.999 31.999 0 0 1 657.562 704zM512 563.473a31.98 31.98 0 0 1 14.89 3.675l88.174 46.355-16.84-98.181a31.997 31.997 0 0 1 9.204-28.324l71.333-69.534-98.58-14.324a32 32 0 0 1-24.094-17.505L512 296.305l-44.087 89.33a32 32 0 0 1-24.094 17.505l-98.58 14.324 71.333 69.534a31.997 31.997 0 0 1 9.203 28.324l-16.84 98.181 88.174-46.355A31.98 31.98 0 0 1 512 563.473z" p-id="2242" fill="#67E6D1"></path></svg>