<?xml version="1.0" standalone="no"?><!DOCTYPE svg PUBLIC "-//W3C//DTD SVG 1.1//EN" "http://www.w3.org/Graphics/SVG/1.1/DTD/svg11.dtd"><svg t="1523283410749" class="icon" style="" viewBox="0 0 1024 1024" version="1.1" xmlns="http://www.w3.org/2000/svg" p-id="929" xmlns:xlink="http://www.w3.org/1999/xlink" width="200" height="200"><defs><style type="text/css"></style></defs><path d="M657.639 939.48H367.771c-17.255 0-31.292-14.579-31.292-32.498V117.017c0-17.919 14.038-32.498 31.292-32.498h289.867c17.255 0 31.292 14.579 31.292 32.498v789.965c0.001 17.919-14.036 32.498-31.291 32.498z m-281.16-40h272.452V124.519H376.479V899.48zM310.469 935.231H121.792c-17.255 0-31.292-14.578-31.292-32.498v-577.5c0-17.919 14.038-32.498 31.292-32.498h185.552v40H130.5v562.497h179.969v39.999z" p-id="930"></path><path d="M581.036 312.093c0 6.902-5.596 12.498-12.498 12.498H455.357c-6.903 0-12.498-5.596-12.498-12.498v-7.047c0-6.903 5.595-12.498 12.498-12.498h113.181c6.902 0 12.498 5.595 12.498 12.498v7.047zM288.374 428.394c0 6.902-5.596 12.498-12.498 12.498H162.694c-6.903 0-12.498-5.596-12.498-12.498v-7.046c0-6.903 5.595-12.498 12.498-12.498h113.181c6.902 0 12.498 5.595 12.498 12.498v7.046zM288.374 544.694c0 6.902-5.596 12.498-12.498 12.498H162.694c-6.903 0-12.498-5.596-12.498-12.498v-7.046c0-6.904 5.595-12.498 12.498-12.498h113.181c6.902 0 12.498 5.594 12.498 12.498v7.046zM871.616 544.694c0 6.902-5.597 12.498-12.498 12.498H745.937c-6.901 0-12.498-5.596-12.498-12.498v-7.046c0-6.904 5.597-12.498 12.498-12.498h113.182c6.901 0 12.498 5.594 12.498 12.498v7.046zM871.616 428.394c0 6.902-5.597 12.498-12.498 12.498H745.937c-6.901 0-12.498-5.596-12.498-12.498v-7.046c0-6.904 5.597-12.498 12.498-12.498h113.182c6.901 0 12.498 5.594 12.498 12.498v7.046zM581.036 428.394c0 6.902-5.596 12.498-12.498 12.498H455.357c-6.903 0-12.498-5.596-12.498-12.498v-7.046c0-6.903 5.595-12.498 12.498-12.498h113.181c6.902 0 12.498 5.595 12.498 12.498v7.046zM581.036 544.694c0 6.902-5.596 12.498-12.498 12.498H455.357c-6.903 0-12.498-5.596-12.498-12.498v-7.046c0-6.902 5.595-12.498 12.498-12.498h113.181c6.902 0 12.498 5.596 12.498 12.498v7.046z" p-id="931" class="selected" fill="#67E6D1"></path><path d="M902.207 931.065H716.655v-40H893.5V328.569H713.53v-40h188.677c8.618 0 16.938 3.737 22.825 10.252 5.462 6.045 8.469 13.946 8.468 22.249v577.498c0 17.919-14.038 32.497-31.293 32.497z" p-id="932"></path></svg>