<svg id="图层_1" data-name="图层 1" xmlns="http://www.w3.org/2000/svg" viewBox="0 0 64 64"><title>青学icon全改3</title><path class="cls-1" fill="#00c896" d="M51.21,33.45l-2.25-3a.72.72,0,0,0-1.22.11l-2.4,4.79a.38.38,0,0,1-.73-.17V13.7l7.3-2.43V33.21A.39.39,0,0,1,51.21,33.45Z"/><path class="cls-1" fill="#00c896" d="M45,36.77a1.55,1.55,0,0,1-.37,0,1.59,1.59,0,0,1-1.23-1.56V12.82l9.72-3.24V33.21a1.59,1.59,0,0,1-2.88,1l-1.77-2.36-2,4.08A1.6,1.6,0,0,1,45,36.77Zm7.18-4.05h0ZM45.83,14.58V31.66L46.65,30a1.93,1.93,0,0,1,3.28-.29l.76,1V13Z"/><path class="cls-2" fill="#999" d="M26.35,57a6.24,6.24,0,0,1-1.75-.26L7.67,52.41a6.1,6.1,0,0,1-4.4-5.87V15.42a6.12,6.12,0,0,1,7.87-5.86l16.91,4.35a6.09,6.09,0,0,1,4.4,5.87V50.9A6.13,6.13,0,0,1,26.35,57Zm-17-45.28A3.68,3.68,0,0,0,5.7,15.42V46.54a3.67,3.67,0,0,0,2.62,3.53l17,4.35A3.68,3.68,0,0,0,30,50.9V19.78a3.67,3.67,0,0,0-2.63-3.53l-16.9-4.34A3.72,3.72,0,0,0,9.37,11.74Z"/><path class="cls-2" fill="#999" d="M36.12,57A6.13,6.13,0,0,1,30,50.9V19.78a6.08,6.08,0,0,1,4.36-5.86L52.61,9.55a6.11,6.11,0,0,1,7.81,5.87V46.54a6.09,6.09,0,0,1-4.36,5.86l-18.2,4.36A6.17,6.17,0,0,1,36.12,57Zm18.2-45.28a3.89,3.89,0,0,0-1.07.15L35,16.27a3.65,3.65,0,0,0-2.56,3.51V50.9a3.68,3.68,0,0,0,4.74,3.52h.07l18.17-4.36A3.66,3.66,0,0,0,58,46.54V15.42a3.63,3.63,0,0,0-1.49-2.95A3.58,3.58,0,0,0,54.32,11.74Z"/></svg>
