<?xml version="1.0" standalone="no"?><!DOCTYPE svg PUBLIC "-//W3C//DTD SVG 1.1//EN" "http://www.w3.org/Graphics/SVG/1.1/DTD/svg11.dtd"><svg t="1523204747426" class="icon" style="" viewBox="0 0 1024 1024" version="1.1" xmlns="http://www.w3.org/2000/svg" p-id="581" xmlns:xlink="http://www.w3.org/1999/xlink" width="200" height="200"><defs><style type="text/css"></style></defs><path d="M256.004 800.001a32 32 0 0 1-30.361-42.12l64-192a31.991 31.991 0 0 1 7.73-12.508l512-512a32 32 0 0 1 45.255 0l128 128a32.001 32.001 0 0 1 0 45.254l-512 512a32.014 32.014 0 0 1-12.509 7.73l-192 64a31.976 31.976 0 0 1-10.115 1.644z m91.965-206.715l-41.372 124.118 124.117-41.373L914.745 192 832 109.255z" p-id="582" fill="#67E6D1" class="selected"></path><path d="M896 992H128a96.109 96.109 0 0 1-96-96V128a96.109 96.109 0 0 1 96-96h512a32 32 0 0 1 0 64H128a32.036 32.036 0 0 0-32 32v768a32.036 32.036 0 0 0 32 32h768a32.036 32.036 0 0 0 32-32V384a32 32 0 0 1 64 0v512a96.109 96.109 0 0 1-96 96z" p-id="583" fill="#67E6D1"></path><path d="M832 352a31.898 31.898 0 0 1-22.627-9.373l-128-128a32 32 0 0 1 45.254-45.254l128 128A32 32 0 0 1 832 352z" p-id="584" fill="#67E6D1" class="selected"></path></svg>