<svg id="图层_1" data-name="图层 1" xmlns="http://www.w3.org/2000/svg" viewBox="0 0 64 64"><title>青学icon全改3</title><rect class="cls-1" fill="#999" x="2.04" y="30.5" width="60.8" height="7.3" rx="3" ry="3"/><rect class="cls-2" fill="#fff" x="6.9" y="15.91" width="9.73" height="34.05" rx="4" ry="4"/><path class="cls-1" fill="#999" d="M11.77,51.17a6.08,6.08,0,0,1-6.08-6.08V20.77a6.08,6.08,0,0,1,12.16,0V45.09A6.09,6.09,0,0,1,11.77,51.17Zm0-34a3.66,3.66,0,0,0-3.65,3.65V45.09a3.65,3.65,0,1,0,7.29,0V20.77A3.65,3.65,0,0,0,11.77,17.12Z"/><rect class="cls-2" fill="#fff" x="37.3" y="11.04" width="9.73" height="43.78" rx="4" ry="4"/><path class="cls-1" fill="#999" d="M42.17,56A6.09,6.09,0,0,1,36.09,50v-34a6.08,6.08,0,1,1,12.16,0V50A6.09,6.09,0,0,1,42.17,56Zm0-43.78a3.65,3.65,0,0,0-3.65,3.65V50a3.65,3.65,0,0,0,7.3,0v-34A3.65,3.65,0,0,0,42.17,12.26Z"/><rect class="cls-2" fill="#fff" x="48.25" y="15.91" width="9.73" height="34.05" rx="4" ry="4"/><path class="cls-1" fill="#999" d="M53.11,51.17A6.09,6.09,0,0,1,47,45.09V20.77a6.08,6.08,0,1,1,12.16,0V45.09A6.08,6.08,0,0,1,53.11,51.17Zm0-34a3.66,3.66,0,0,0-3.65,3.65V45.09a3.65,3.65,0,0,0,7.3,0V20.77A3.66,3.66,0,0,0,53.11,17.12Z"/><rect class="cls-3" fill="#00c896" x="17.85" y="11.04" width="9.73" height="43.78" rx="4" ry="4"/><path class="cls-3" fill="#00c896" d="M22.71,56A6.09,6.09,0,0,1,16.63,50v-34a6.08,6.08,0,1,1,12.16,0V50A6.09,6.09,0,0,1,22.71,56Zm0-43.78a3.65,3.65,0,0,0-3.65,3.65V50a3.65,3.65,0,0,0,7.3,0v-34A3.65,3.65,0,0,0,22.71,12.26Z"/></svg>
