<?xml version="1.0" standalone="no"?><!DOCTYPE svg PUBLIC "-//W3C//DTD SVG 1.1//EN" "http://www.w3.org/Graphics/SVG/1.1/DTD/svg11.dtd"><svg t="1523289770937" class="icon" style="" viewBox="0 0 1024 1024" version="1.1" xmlns="http://www.w3.org/2000/svg" p-id="1348" xmlns:xlink="http://www.w3.org/1999/xlink" width="200" height="200"><defs><style type="text/css"></style></defs><path d="M512 959.8C265.1 959.8 64.2 758.9 64.2 512S265.1 64.2 512 64.2 959.8 265.1 959.8 512 758.9 959.8 512 959.8z m0-863.3C282.9 96.5 96.5 282.9 96.5 512S282.9 927.5 512 927.5 927.5 741.1 927.5 512 741.1 96.5 512 96.5z" fill="#4D4D4D" p-id="1349"></path><path d="M939.5 542.8c-1.2 0-2.3-0.1-3.5-0.4-249.5-54.7-465.5-202.3-608.3-415.6-5-7.4-3-17.4 4.4-22.4 7.4-4.9 17.4-3 22.4 4.4C492.8 315.2 701.7 458 943 510.9c8.7 1.9 14.2 10.5 12.3 19.2-1.7 7.5-8.3 12.7-15.8 12.7z" fill="#67E6D1" p-id="1350" class="selected"></path><path d="M268.5 883.2c-5.6 0-11.1-2.9-14.1-8.2-4.4-7.8-1.7-17.6 6.1-22 262.9-148.6 434.6-404.5 471.3-702 1.1-8.8 9.1-15.1 18-14 8.8 1.1 15.1 9.1 14 18C726 462.7 548.3 727.4 276.5 881.1c-2.5 1.5-5.3 2.1-8 2.1z" fill="#67E6D1" p-id="1351" class="selected"></path><path d="M663.7 926.9c-4.8 0-9.5-2.1-12.7-6.2-141.7-181.1-343.3-305-567.7-348.8-8.7-1.7-14.5-10.2-12.7-18.9 1.7-8.7 10.1-14.5 18.9-12.7 232 45.4 440.4 173.4 586.9 360.6 5.5 7 4.3 17.2-2.8 22.7-3 2.1-6.5 3.3-9.9 3.3z" fill="#67E6D1" p-id="1352" class="selected"></path></svg>