<svg id="图层_1" data-name="图层 1" xmlns="http://www.w3.org/2000/svg" viewBox="0 0 64 64"><title>青学icon全改3</title><rect class="cls-1" fill="#999" x="30.25" y="3.97" width="10.94" height="2.43" rx="1.22" ry="1.22"/><path class="cls-2" fill="#fff" d="M53.22,31.94H46.63a4.36,4.36,0,0,1-4.36-4.36V22.89a4.34,4.34,0,0,0-1.38-3.18l-9.56-7.83-9.57,7.83a4.34,4.34,0,0,0-1.38,3.18v4.69A4.36,4.36,0,0,1,16,31.94H9.44a4.87,4.87,0,0,0-4.87,4.87V52.62a4.87,4.87,0,0,0,4.87,4.86H21.53A2.5,2.5,0,0,0,24,55V51.71a7.5,7.5,0,0,1,7.07-7.6,7.29,7.29,0,0,1,7.52,7.29V55a2.5,2.5,0,0,0,2.5,2.5h12.1a4.87,4.87,0,0,0,4.86-4.86V36.81A4.87,4.87,0,0,0,53.22,31.94Z"/><path class="cls-1" fill="#999" d="M53.22,58.7H41.12A3.72,3.72,0,0,1,37.41,55V51.4a6.1,6.1,0,0,0-6.27-6.08,6.29,6.29,0,0,0-5.89,6.39V55a3.73,3.73,0,0,1-3.72,3.72H9.44a6.09,6.09,0,0,1-6.08-6.08V36.81a6.08,6.08,0,0,1,6.08-6.08H16a3.15,3.15,0,0,0,3.14-3.15V22.89a5.59,5.59,0,0,1,1.76-4.07l10.4-8.51,10.33,8.46a5.59,5.59,0,0,1,1.83,4.12v4.69a3.15,3.15,0,0,0,3.14,3.15h6.59a6.08,6.08,0,0,1,6.08,6.08V52.62A6.09,6.09,0,0,1,53.22,58.7ZM31.33,42.89a8.52,8.52,0,0,1,8.51,8.51V55a1.28,1.28,0,0,0,1.28,1.28h12.1a3.64,3.64,0,0,0,3.64-3.64V36.81a3.64,3.64,0,0,0-3.64-3.65H46.63a5.58,5.58,0,0,1-5.57-5.58V22.89a3.19,3.19,0,0,0-1-2.3l-8.73-7.14-8.8,7.2a3.12,3.12,0,0,0-.93,2.24v4.69A5.58,5.58,0,0,1,16,33.16H9.44a3.65,3.65,0,0,0-3.65,3.65V52.62a3.65,3.65,0,0,0,3.65,3.64H21.53A1.28,1.28,0,0,0,22.81,55V51.71a8.75,8.75,0,0,1,8.26-8.82Z"/><circle class="cls-3" fill="#00c896" cx="31.33" cy="33.61" r="4.86"/><path class="cls-3" fill="#00c896" d="M31.33,39.69a6.08,6.08,0,1,1,6.08-6.08A6.08,6.08,0,0,1,31.33,39.69Zm0-9.72A3.65,3.65,0,1,0,35,33.61,3.65,3.65,0,0,0,31.33,30Z"/><rect class="cls-1" fill="#999" x="30.11" y="3.97" width="2.43" height="8.51" rx="1.22" ry="1.22"/></svg>
