<?xml version="1.0" standalone="no"?><!DOCTYPE svg PUBLIC "-//W3C//DTD SVG 1.1//EN" "http://www.w3.org/Graphics/SVG/1.1/DTD/svg11.dtd"><svg t="1523283401087" class="icon" style="" viewBox="0 0 1024 1024" version="1.1" xmlns="http://www.w3.org/2000/svg" p-id="751" xmlns:xlink="http://www.w3.org/1999/xlink" width="200" height="200"><defs><style type="text/css"></style></defs><path d="M967.2394666666667 893.5391999999999h-106.0064V461.5616c0-39.75146666666667-31.8016-71.55199999999999-71.55306666666667-71.55199999999999H646.5717333333332V175.34613333333334c0-42.404266666666665-37.104-76.85546666666667-82.15573333333333-76.85546666666667H209.29173333333335c-42.4 0-66.25173333333333 34.4512-66.25173333333333 76.85546666666667v718.1941333333333H63.531733333333364c-15.898666666666665 0-26.4992 13.248-26.4992 26.50026666666667s10.600533333333335 26.506666666666668 23.851733333333335 26.506666666666668h906.3552c13.252266666666666 0 23.848533333333332-13.2544 23.848533333333332-26.506666666666668s-10.596266666666665-26.50133333333333-23.848533333333332-26.50133333333333zM787.0250666666667 443.0090666666667c10.606933333333334 0 18.552533333333333 7.952 18.552533333333333 18.552533333333333v431.9776H646.5717333333332V443.0090666666667h140.45333333333335zM196.0448 175.34613333333334c0-13.252266666666666 0-23.850666666666665 13.246933333333333-23.850666666666665H564.4159999999999c15.897599999999999 0 29.149866666666664 10.599466666666666 29.149866666666664 23.850666666666665v718.1941333333333H196.0448V175.34613333333334z m0 0" p-id="752"></path><path d="M341.8005333333333 331.7066666666667H302.048c-5.300266666666667 0-10.600533333333335-5.300266666666667-10.600533333333335-10.600533333333335v-42.404266666666665c0-5.2992 5.2992-10.600533333333335 10.600533333333335-10.600533333333335h39.75253333333333c5.2992 0 10.603733333333334 5.301333333333333 10.603733333333334 10.600533333333335v39.75253333333333c2.6464 7.952-2.6517333333333335 13.252266666666666-10.603733333333334 13.252266666666666z m0 127.2064H302.048c-5.300266666666667 0-10.600533333333335-5.300266666666667-10.600533333333335-10.599466666666666v-39.75573333333333c0-5.300266666666667 5.2992-10.599466666666666 10.600533333333335-10.599466666666666h39.75253333333333c5.2992 0 10.603733333333334 5.2992 10.603733333333334 10.599466666666666v39.75573333333333c2.6464 5.300266666666667-2.6517333333333335 10.599466666666666-10.603733333333334 10.599466666666666z m0 127.2064H302.048c-5.300266666666667 0-10.600533333333335-5.297066666666667-10.600533333333335-10.597333333333333v-39.75786666666667c0-5.300266666666667 5.2992-10.600533333333335 10.600533333333335-10.600533333333335h39.75253333333333c5.2992 0 10.603733333333334 5.300266666666667 10.603733333333334 10.600533333333335v39.75786666666667c2.6464 5.300266666666667-2.6517333333333335 10.597333333333333-10.603733333333334 10.597333333333333z m127.2064-254.4128h-39.75253333333333c-5.2992 0-10.5984-5.300266666666667-10.5984-10.600533333333335v-42.404266666666665c0-5.2992 5.2981333333333325-10.600533333333335 10.5984-10.600533333333335h39.75253333333333c5.300266666666667 0 10.604800000000001 5.301333333333333 10.604800000000001 10.600533333333335v39.75253333333333c2.647466666666667 7.952-2.6528 13.252266666666666-10.604800000000001 13.252266666666666z m0 127.2064h-39.75253333333333c-5.2992 0-10.5984-5.300266666666667-10.5984-10.599466666666666v-39.75573333333333c0-5.300266666666667 5.2981333333333325-10.599466666666666 10.5984-10.599466666666666h39.75253333333333c5.300266666666667 0 10.604800000000001 5.2992 10.604800000000001 10.599466666666666v39.75573333333333c2.647466666666667 5.300266666666667-2.6528 10.599466666666666-10.604800000000001 10.599466666666666z m0 127.2064h-39.75253333333333c-5.2992 0-10.5984-5.297066666666667-10.5984-10.597333333333333v-39.75786666666667c0-5.300266666666667 5.2981333333333325-10.600533333333335 10.5984-10.600533333333335h39.75253333333333c5.300266666666667 0 10.604800000000001 5.300266666666667 10.604800000000001 10.600533333333335v39.75786666666667c2.647466666666667 5.300266666666667-2.6528 10.597333333333333-10.604800000000001 10.597333333333333z m0 0" p-id="753" class="selected" fill="#67E6D1"></path></svg>