<svg id="图层_1" data-name="图层 1" xmlns="http://www.w3.org/2000/svg" viewBox="0 0 64 64"><title>青学icon全改3</title><path class="cls-1" fill="#00c896" d="M26.82,45.14,46.1,25.86a2.56,2.56,0,0,1,2.4-.67A9,9,0,0,0,58.82,13.13l-4.15,4.16a2.37,2.37,0,0,1-3.34,0l-1.75-1.75a2.37,2.37,0,0,1,0-3.34l4.16-4.15A9,9,0,0,0,41.68,18.37a2.56,2.56,0,0,1-.67,2.4C37.36,24.43,25.43,36.35,21.77,40a2.56,2.56,0,0,1-2.41.67A9,9,0,0,0,9,52.73l4.16-4.15a2.34,2.34,0,0,1,3.33,0l1.75,1.75a2.34,2.34,0,0,1,0,3.33l-4.15,4.16A9,9,0,0,0,26.14,47.53,2.58,2.58,0,0,1,26.82,45.14Z"/><path class="cls-2" fill="#fff" d="M54.47,52.37,24,21.87a2.42,2.42,0,0,1,0-3.4L32.39,10A9,9,0,0,0,19.6,10L4.67,25l6.4,6.4,5.23-5.23a2.4,2.4,0,0,1,3.4,0l30.5,30.5a2.72,2.72,0,0,0,3.83,0l.44-.44A2.72,2.72,0,0,0,54.47,52.37Z"/><path class="cls-3" fill="#999" d="M52.11,58.64a3.93,3.93,0,0,1-2.77-1.14L18.84,27a1.21,1.21,0,0,0-1.68,0l-6.09,6.08L3,25,18.74,9.18a10.27,10.27,0,0,1,14.51,0l.86.86-9.29,9.29a1.21,1.21,0,0,0,0,1.68l30.51,30.5a4,4,0,0,1,0,5.55l-.44.44A3.94,3.94,0,0,1,52.11,58.64ZM18,24.21a3.57,3.57,0,0,1,2.56,1.07l30.5,30.5a1.5,1.5,0,0,0,2.11,0l.44-.44a1.5,1.5,0,0,0,0-2.11l-30.5-30.5a3.6,3.6,0,0,1,0-5.12l7.5-7.5a7.85,7.85,0,0,0-10.15.79L6.39,25l4.68,4.68,4.37-4.37A3.57,3.57,0,0,1,18,24.21Z"/></svg>
