<svg id="图层_1" data-name="图层 1" xmlns="http://www.w3.org/2000/svg" viewBox="0 0 64 64"><title>青学icon全改3</title><rect class="cls-1" fill="#999" x="14.2" y="25.86" width="14.59" height="2.43" rx="1.22" ry="1.22"/><rect class="cls-1" fill="#999" x="14.2" y="18.57" width="19.46" height="2.43" rx="1.22" ry="1.22"/><path class="cls-1" fill="#999" d="M43.38,57.48H14.2A6.09,6.09,0,0,1,8.12,51.4v-34a6.09,6.09,0,0,1,6.08-6.08H43.38a6.08,6.08,0,0,1,6.08,6.08V51.4A6.08,6.08,0,0,1,43.38,57.48ZM14.2,13.7a3.66,3.66,0,0,0-3.65,3.65V51.4a3.66,3.66,0,0,0,3.65,3.65H43.38A3.65,3.65,0,0,0,47,51.4v-34a3.65,3.65,0,0,0-3.65-3.65Z"/><path class="cls-2" fill="#00c896" d="M58.63,49.65,51,33.54a8.45,8.45,0,0,1,.08-7.39l1.49-3a1,1,0,0,0-.75-1.55h-9a1,1,0,0,0-.75,1.55l1.49,3a8.48,8.48,0,0,1,.09,7.39L36,49.65a4.89,4.89,0,0,0,4.59,6.61H54.05A4.89,4.89,0,0,0,58.63,49.65Z"/><path class="cls-2" fill="#00c896" d="M54.05,57.48H40.63a6.1,6.1,0,0,1-5.72-8.26L42.56,33a7.22,7.22,0,0,0-.07-6.33L41,23.8a2.18,2.18,0,0,1,1.79-3.41h9a2.18,2.18,0,0,1,1.8,3.41l-1.45,2.89A7.18,7.18,0,0,0,52.12,33l7.65,16.2a6.11,6.11,0,0,1-5.72,8.26ZM43.27,22.82l1.39,2.78a9.6,9.6,0,0,1,.09,8.46L37.14,50.17a3.59,3.59,0,0,0,.46,3.29,3.64,3.64,0,0,0,3,1.59H54.05a3.69,3.69,0,0,0,3.46-4.93L49.92,34.06A9.63,9.63,0,0,1,50,25.6l1.39-2.78Z"/></svg>
