<?xml version="1.0" standalone="no"?><!DOCTYPE svg PUBLIC "-//W3C//DTD SVG 1.1//EN" "http://www.w3.org/Graphics/SVG/1.1/DTD/svg11.dtd"><svg t="1523282549035" class="icon" style="" viewBox="0 0 1024 1024" version="1.1" xmlns="http://www.w3.org/2000/svg" p-id="10903" xmlns:xlink="http://www.w3.org/1999/xlink" width="200" height="200"><defs><style type="text/css"></style></defs><path d="M510.7 485m-67.7 0a67.7 67.7 0 1 0 135.4 0 67.7 67.7 0 1 0-135.4 0Z" fill="#67E6D1" p-id="10904" class=""></path><path d="M512 91.9l1.1 68.8h130.5V91.9zM445.9 929.4l130.1-1V674.5H445.9z" fill="#67E6D1" p-id="10905"></path><path d="M510.7 407.3c-42.8 0-77.7 34.9-77.7 77.7s34.9 77.7 77.7 77.7 77.7-34.9 77.7-77.7-34.9-77.7-77.7-77.7z m0 135.4c-31.8 0-57.7-25.9-57.7-57.7s25.9-57.7 57.7-57.7 57.7 25.9 57.7 57.7-25.9 57.7-57.7 57.7zM150 473.4h100.3c5.5 0 10-4.5 10-10s-4.5-10-10-10H150c-5.5 0-10 4.5-10 10s4.5 10 10 10zM250.4 520.4H150c-5.5 0-10 4.5-10 10s4.5 10 10 10h100.3c5.5 0 10-4.5 10-10s-4.4-10-9.9-10zM250.4 587.4H150c-5.5 0-10 4.5-10 10s4.5 10 10 10h100.3c5.5 0 10-4.5 10-10s-4.4-10-9.9-10z" fill="#67E6D1" p-id="10906"></path><path d="M943.4 335.5H720.8v-15.6c0-6-3.2-11.5-8.4-14.4L528.5 202.6v-25.5h115.1c9.1 0 16.5-7.4 16.5-16.5V91.9c0-9.1-7.4-16.5-16.5-16.5H527.7C525.5 68.8 519.3 64 512 64c-9.1 0-16.5 7.4-16.5 16.5v122.3L312.2 305c-5.2 2.9-8.5 8.4-8.5 14.4v16.1H80.6c-9.1 0-16.5 7.4-16.5 16.5v521.9c0 9.1 7.4 16.5 16.5 16.5h222.8v53c0 4.4 1.7 8.6 4.8 11.7 3.1 3.1 7.3 4.8 11.7 4.8h384.5c9.1 0 16.5-7.4 16.5-16.5v-53h222.7c9.1 0 16.5-7.4 16.5-16.5V352c-0.2-9.1-7.5-16.5-16.7-16.5zM530.8 108.4h96.3v35.7H530l0.8-35.7z m-320.6 749V746.8c0-5.5-4.5-10-10-10s-10 4.5-10 10v110.6H97.1V368.5h206.7l-0.4 488.9h-93.2z m350.2 69.5h-97.2V691h97.2v235.9z m33 0V674.5c0-9.1-7.4-16.5-16.5-16.5H446.7c-9.1 0-16.5 7.4-16.5 16.5v252.4h-93.9v-50.6c0.1-0.8 0.2-1.6 0.2-2.4 0-0.8-0.1-1.6-0.2-2.4l0.4-542.4 175.5-97.8 175.5 98.3v541.3c-0.2 1-0.3 2-0.3 3.1s0.1 2.1 0.3 3.1V927h-94.3z m333.5-69.5h-93.1V746.8c0-5.5-4.5-10-10-10s-10 4.5-10 10v110.6h-93V368.5H927v488.9z" fill="#2c2c2c" p-id="10907" class="selected"></path><path d="M773.6 473.4H874c5.5 0 10-4.5 10-10s-4.5-10-10-10H773.6c-5.5 0-10 4.5-10 10s4.5 10 10 10zM773.6 540.4H874c5.5 0 10-4.5 10-10s-4.5-10-10-10H773.6c-5.5 0-10 4.5-10 10s4.5 10 10 10zM874 587.4H773.6c-5.5 0-10 4.5-10 10s4.5 10 10 10H874c5.5 0 10-4.5 10-10s-4.5-10-10-10z" fill="#67E6D1" p-id="10908"></path></svg>